<?xml version="1.0" encoding="UTF-8"?>
<svg version="1.1" xmlns="http://www.w3.org/2000/svg" width="1024" height="1024">
<path d="M0 0 C337.92 0 675.84 0 1024 0 C1024 337.92 1024 675.84 1024 1024 C686.08 1024 348.16 1024 0 1024 C0 686.08 0 348.16 0 0 Z " fill="#241713" transform="translate(0,0)"/>
<path d="M0 0 C3.77299467 0.01603875 7.54490916 0.00007429 11.31787109 -0.01904297 C32.46769986 -0.03770704 53.45313005 1.61912749 74.22802734 5.70361328 C75.33210938 5.91598633 76.43619141 6.12835938 77.57373047 6.34716797 C117.24445627 14.16109881 155.14401263 27.81326799 190.54052734 47.39111328 C191.25821289 47.78314941 191.97589844 48.17518555 192.71533203 48.57910156 C199.41544028 52.24572193 205.85976917 56.14251016 212.05615234 60.61767578 C214.79746797 62.57452687 217.59866445 64.4198275 220.41552734 66.26611328 C229.87167931 72.55813777 238.7649878 79.42715398 247.3527832 86.84936523 C250.25984992 89.38940379 250.25984992 89.38940379 253.54052734 91.39111328 C253.54052734 92.05111328 253.54052734 92.71111328 253.54052734 93.39111328 C254.09095703 93.62443359 254.64138672 93.85775391 255.20849609 94.09814453 C263.67832927 98.79414919 270.93363139 107.67674303 277.79052734 114.45361328 C278.79273315 115.43624146 278.79273315 115.43624146 279.81518555 116.4387207 C280.73883911 117.36068237 280.73883911 117.36068237 281.68115234 118.30126953 C282.23319336 118.84920166 282.78523437 119.39713379 283.35400391 119.96166992 C284.54052734 121.39111328 284.54052734 121.39111328 284.54052734 123.39111328 C285.20052734 123.39111328 285.86052734 123.39111328 286.54052734 123.39111328 C287.91544033 124.89898489 289.21417196 126.47651089 290.47802734 128.07861328 C293.40521147 131.74809768 296.35784985 135.35809674 299.44238281 138.89794922 C321.5237488 164.37829404 339.10287612 194.24156514 352.79052734 224.95361328 C353.48988403 226.51462769 353.48988403 226.51462769 354.20336914 228.10717773 C356.45657132 233.30297244 357.89456527 237.78508526 358.54052734 243.39111328 C359.20052734 243.72111328 359.86052734 244.05111328 360.54052734 244.39111328 C362.00049874 247.31773595 363.01545949 250.43471773 364.10302734 253.51611328 C364.42021729 254.41233398 364.73740723 255.30855469 365.06420898 256.23193359 C367.68130265 264.02705974 368.62761568 271.17992691 368.54052734 279.39111328 C369.20052734 279.39111328 369.86052734 279.39111328 370.54052734 279.39111328 C373.20313437 288.58921027 374.70173852 297.92785513 376.18212891 307.37548828 C376.42527832 308.90496094 376.42527832 308.90496094 376.67333984 310.46533203 C376.81658691 311.38918701 376.95983398 312.31304199 377.10742188 313.26489258 C377.33184992 315.36634945 377.33184992 315.36634945 378.54052734 316.39111328 C381.59257079 335.07489234 382.13797377 354.22290173 382.47753906 373.11279297 C382.5290388 375.7931747 382.6060652 378.4698566 382.70068359 381.14892578 C383.40306271 406.56064189 379.54294534 432.56743104 374.54052734 457.39111328 C374.35796387 458.30505859 374.17540039 459.21900391 373.98730469 460.16064453 C362.05257315 518.25843276 335.13731239 572.89314924 297.2421875 618.32470703 C296.01167993 619.81897046 294.80010593 621.32889344 293.60058594 622.84814453 C287.93473802 629.96429482 281.80428132 636.43661621 275.35742188 642.83496094 C273.66739492 644.51425756 271.9883497 646.20400297 270.31005859 647.89501953 C263.69510569 654.51802181 256.88447735 660.57681596 249.54052734 666.39111328 C247.84971821 667.80382881 246.16183336 669.22005804 244.47802734 670.64111328 C224.49384551 686.95821196 202.5486886 701.14690369 179.38671875 712.47753906 C177.52598042 713.39831172 175.67875417 714.34207888 173.83349609 715.29345703 C137.86511464 733.77579923 99.41597345 745.15418453 59.54052734 751.39111328 C58.0371582 751.64103027 58.0371582 751.64103027 56.50341797 751.89599609 C23.85371548 757.17724402 -12.68000024 756.82426996 -45.45947266 752.39111328 C-45.78947266 752.06111328 -46.11947266 751.73111328 -46.45947266 751.39111328 C-47.79749451 751.16598227 -49.14520289 750.99750521 -50.49462891 750.85595703 C-51.30351562 750.76894531 -52.11240234 750.68193359 -52.94580078 750.59228516 C-54.22100586 750.46176758 -54.22100586 750.46176758 -55.52197266 750.32861328 C-56.37597656 750.23773437 -57.22998047 750.14685547 -58.10986328 750.05322266 C-60.225988 749.82860607 -62.3426816 749.60936101 -64.45947266 749.39111328 C-64.45947266 748.73111328 -64.45947266 748.07111328 -64.45947266 747.39111328 C-65.714375 747.35244141 -65.714375 747.35244141 -66.99462891 747.31298828 C-77.54008625 746.7991454 -87.34157407 745.01774854 -97.10791016 740.82470703 C-99.87143312 739.64264068 -102.21753542 738.8703225 -105.14697266 738.32861328 C-108.25832808 737.74834273 -110.65253394 736.8427826 -113.45947266 735.39111328 C-115.79110643 734.71852662 -118.12467656 734.05263884 -120.45947266 733.39111328 C-121.67634766 732.91673828 -122.89322266 732.44236328 -124.14697266 731.95361328 C-128.41340414 730.29995767 -132.77253286 729.30888966 -137.23681641 728.33251953 C-141.51490058 727.0828004 -145.42532389 725.27057362 -149.45947266 723.39111328 C-150.30727295 723.00238037 -151.15507324 722.61364746 -152.02856445 722.21313477 C-162.60948835 717.33580141 -173.04665857 712.27035623 -183.14697266 706.45361328 C-184.32138916 705.7815686 -184.32138916 705.7815686 -185.51953125 705.09594727 C-188.52584555 703.32809578 -191.09320827 701.76562377 -193.54150391 699.26220703 C-195.68052358 697.17546483 -197.78614879 696.35102749 -200.53662109 695.26269531 C-204.19174347 693.60591688 -207.34639896 691.17536146 -210.58447266 688.82861328 C-211.69870605 688.03015991 -211.69870605 688.03015991 -212.83544922 687.21557617 C-223.53505275 679.50813723 -233.85531717 671.42327851 -243.83129883 662.7980957 C-244.96744446 661.81629824 -246.10865134 660.84034051 -247.25366211 659.86889648 C-253.11918153 654.83781482 -258.57143214 649.42749658 -264.02197266 643.95361328 C-264.92882812 643.050625 -265.83568359 642.14763672 -266.77001953 641.21728516 C-326.44008674 581.46067688 -359.91217269 501.30206257 -370.45947266 418.39111328 C-370.59665962 417.31832375 -370.59665962 417.31832375 -370.73661804 416.22386169 C-371.59321753 408.77383927 -371.62107955 401.35616 -371.62744141 393.86376953 C-371.6306669 392.4662625 -371.63403186 391.06875578 -371.63752747 389.67124939 C-371.64348255 386.75063294 -371.64537136 383.83004591 -371.64477539 380.90942383 C-371.64469449 377.95493398 -371.65158389 375.00060037 -371.6652832 372.04614258 C-371.83695962 334.42521674 -371.83695962 334.42521674 -367.93266296 317.46018982 C-367.3524836 314.92329188 -366.8595369 312.37482364 -366.38134766 309.81689453 C-359.10177313 271.64671229 -346.67573978 235.94489446 -328.83447266 201.45361328 C-328.2839624 200.3870752 -327.73345215 199.32053711 -327.16625977 198.22167969 C-324.4642533 193.04069727 -321.68359498 187.98261207 -318.52685547 183.06469727 C-317.13982929 180.88993413 -315.88434948 178.65374519 -314.64697266 176.39111328 C-314.22802734 175.62798828 -313.80908203 174.86486328 -313.37744141 174.07861328 C-313.07451172 173.52173828 -312.77158203 172.96486328 -312.45947266 172.39111328 C-311.79947266 172.39111328 -311.13947266 172.39111328 -310.45947266 172.39111328 C-310.19134766 171.65892578 -309.92322266 170.92673828 -309.64697266 170.17236328 C-304.18875976 157.38865413 -292.64905298 145.52554384 -283.48217773 135.14794922 C-280.75921637 132.03834104 -278.5369227 128.98337065 -276.45947266 125.39111328 C-273.89697266 122.57861328 -273.89697266 122.57861328 -271.45947266 120.39111328 C-270.79947266 120.39111328 -270.13947266 120.39111328 -269.45947266 120.39111328 C-268.46947266 118.41111328 -268.46947266 118.41111328 -267.45947266 116.39111328 C-266.79947266 116.39111328 -266.13947266 116.39111328 -265.45947266 116.39111328 C-265.45947266 115.73111328 -265.45947266 115.07111328 -265.45947266 114.39111328 C-264.79947266 114.39111328 -264.13947266 114.39111328 -263.45947266 114.39111328 C-263.45947266 113.73111328 -263.45947266 113.07111328 -263.45947266 112.39111328 C-262.79947266 112.39111328 -262.13947266 112.39111328 -261.45947266 112.39111328 C-260.96447266 110.41111328 -260.96447266 110.41111328 -260.45947266 108.39111328 C-259.46947266 108.39111328 -258.47947266 108.39111328 -257.45947266 108.39111328 C-257.45947266 107.73111328 -257.45947266 107.07111328 -257.45947266 106.39111328 C-256.79947266 106.39111328 -256.13947266 106.39111328 -255.45947266 106.39111328 C-255.45947266 105.73111328 -255.45947266 105.07111328 -255.45947266 104.39111328 C-254.79947266 104.39111328 -254.13947266 104.39111328 -253.45947266 104.39111328 C-253.45947266 103.73111328 -253.45947266 103.07111328 -253.45947266 102.39111328 C-252.06103516 100.98095703 -252.06103516 100.98095703 -250.08447266 99.32861328 C-246.96797035 96.68990227 -243.94631367 93.9879566 -240.95947266 91.20361328 C-235.35092738 86.13251748 -229.32505952 81.68396866 -223.24462891 77.20361328 C-220.20993952 74.96602665 -217.26156226 72.64344494 -214.33447266 70.26611328 C-211.17691541 67.76184374 -208.34096285 66.55556034 -204.45947266 65.39111328 C-204.12947266 64.40111328 -203.79947266 63.41111328 -203.45947266 62.39111328 C-201.13134766 60.92626953 -201.13134766 60.92626953 -198.20947266 59.45361328 C-195.03918169 57.80702805 -192.37649854 56.32437323 -189.58447266 54.07861328 C-187.19015109 52.17724027 -185.46625959 51.73474607 -182.45947266 51.39111328 C-182.45947266 50.73111328 -182.45947266 50.07111328 -182.45947266 49.39111328 C-181.42048828 48.87162109 -180.38150391 48.35212891 -179.31103516 47.81689453 C-178.64088379 47.48173828 -177.97073242 47.14658203 -177.28027344 46.80126953 C-175.80234299 46.06246863 -174.32414781 45.32419709 -172.84570312 44.58642578 C-169.82531103 43.07854447 -166.80664789 41.56929587 -163.80322266 40.02783203 C-134.47278902 25.0011486 -102.75907935 13.83466263 -70.45947266 7.39111328 C-69.11272461 7.12089355 -69.11272461 7.12089355 -67.73876953 6.84521484 C-45.12635851 2.37607142 -23.07625517 -0.11614066 0 0 Z " fill="#37231D" transform="translate(507.45947265625,131.60888671875)"/>
<path d="M0 0 C3.77299467 0.01603875 7.54490916 0.00007429 11.31787109 -0.01904297 C32.46769986 -0.03770704 53.45313005 1.61912749 74.22802734 5.70361328 C75.33210938 5.91598633 76.43619141 6.12835938 77.57373047 6.34716797 C117.24445627 14.16109881 155.14401263 27.81326799 190.54052734 47.39111328 C191.25821289 47.78314941 191.97589844 48.17518555 192.71533203 48.57910156 C199.41544028 52.24572193 205.85976917 56.14251016 212.05615234 60.61767578 C214.79746797 62.57452687 217.59866445 64.4198275 220.41552734 66.26611328 C229.87167931 72.55813777 238.7649878 79.42715398 247.3527832 86.84936523 C250.25984992 89.38940379 250.25984992 89.38940379 253.54052734 91.39111328 C253.54052734 92.05111328 253.54052734 92.71111328 253.54052734 93.39111328 C254.09095703 93.62443359 254.64138672 93.85775391 255.20849609 94.09814453 C263.67832927 98.79414919 270.93363139 107.67674303 277.79052734 114.45361328 C278.79273315 115.43624146 278.79273315 115.43624146 279.81518555 116.4387207 C280.73883911 117.36068237 280.73883911 117.36068237 281.68115234 118.30126953 C282.23319336 118.84920166 282.78523437 119.39713379 283.35400391 119.96166992 C284.54052734 121.39111328 284.54052734 121.39111328 284.54052734 123.39111328 C285.20052734 123.39111328 285.86052734 123.39111328 286.54052734 123.39111328 C287.91544033 124.89898489 289.21417196 126.47651089 290.47802734 128.07861328 C293.40521147 131.74809768 296.35784985 135.35809674 299.44238281 138.89794922 C321.5237488 164.37829404 339.10287612 194.24156514 352.79052734 224.95361328 C353.48988403 226.51462769 353.48988403 226.51462769 354.20336914 228.10717773 C356.45657132 233.30297244 357.89456527 237.78508526 358.54052734 243.39111328 C359.20052734 243.72111328 359.86052734 244.05111328 360.54052734 244.39111328 C362.00049874 247.31773595 363.01545949 250.43471773 364.10302734 253.51611328 C364.42021729 254.41233398 364.73740723 255.30855469 365.06420898 256.23193359 C367.68130265 264.02705974 368.62761568 271.17992691 368.54052734 279.39111328 C369.20052734 279.39111328 369.86052734 279.39111328 370.54052734 279.39111328 C373.20313437 288.58921027 374.70173852 297.92785513 376.18212891 307.37548828 C376.42527832 308.90496094 376.42527832 308.90496094 376.67333984 310.46533203 C376.81658691 311.38918701 376.95983398 312.31304199 377.10742188 313.26489258 C377.33184992 315.36634945 377.33184992 315.36634945 378.54052734 316.39111328 C381.59257079 335.07489234 382.13797377 354.22290173 382.47753906 373.11279297 C382.5290388 375.7931747 382.6060652 378.4698566 382.70068359 381.14892578 C383.40306271 406.56064189 379.54294534 432.56743104 374.54052734 457.39111328 C374.35796387 458.30505859 374.17540039 459.21900391 373.98730469 460.16064453 C362.05257315 518.25843276 335.13731239 572.89314924 297.2421875 618.32470703 C296.01167993 619.81897046 294.80010593 621.32889344 293.60058594 622.84814453 C287.93473802 629.96429482 281.80428132 636.43661621 275.35742188 642.83496094 C273.66739492 644.51425756 271.9883497 646.20400297 270.31005859 647.89501953 C263.69510569 654.51802181 256.88447735 660.57681596 249.54052734 666.39111328 C247.84971821 667.80382881 246.16183336 669.22005804 244.47802734 670.64111328 C224.49384551 686.95821196 202.5486886 701.14690369 179.38671875 712.47753906 C177.52598042 713.39831172 175.67875417 714.34207888 173.83349609 715.29345703 C137.86511464 733.77579923 99.41597345 745.15418453 59.54052734 751.39111328 C58.0371582 751.64103027 58.0371582 751.64103027 56.50341797 751.89599609 C23.85371548 757.17724402 -12.68000024 756.82426996 -45.45947266 752.39111328 C-45.78947266 752.06111328 -46.11947266 751.73111328 -46.45947266 751.39111328 C-47.79749451 751.16598227 -49.14520289 750.99750521 -50.49462891 750.85595703 C-51.30351562 750.76894531 -52.11240234 750.68193359 -52.94580078 750.59228516 C-54.22100586 750.46176758 -54.22100586 750.46176758 -55.52197266 750.32861328 C-56.37597656 750.23773437 -57.22998047 750.14685547 -58.10986328 750.05322266 C-60.225988 749.82860607 -62.3426816 749.60936101 -64.45947266 749.39111328 C-64.45947266 748.73111328 -64.45947266 748.07111328 -64.45947266 747.39111328 C-65.714375 747.35244141 -65.714375 747.35244141 -66.99462891 747.31298828 C-77.54008625 746.7991454 -87.34157407 745.01774854 -97.10791016 740.82470703 C-99.87143312 739.64264068 -102.21753542 738.8703225 -105.14697266 738.32861328 C-108.25832808 737.74834273 -110.65253394 736.8427826 -113.45947266 735.39111328 C-115.79110643 734.71852662 -118.12467656 734.05263884 -120.45947266 733.39111328 C-121.67634766 732.91673828 -122.89322266 732.44236328 -124.14697266 731.95361328 C-128.41340414 730.29995767 -132.77253286 729.30888966 -137.23681641 728.33251953 C-141.51490058 727.0828004 -145.42532389 725.27057362 -149.45947266 723.39111328 C-150.30727295 723.00238037 -151.15507324 722.61364746 -152.02856445 722.21313477 C-162.60948835 717.33580141 -173.04665857 712.27035623 -183.14697266 706.45361328 C-184.32138916 705.7815686 -184.32138916 705.7815686 -185.51953125 705.09594727 C-188.52584555 703.32809578 -191.09320827 701.76562377 -193.54150391 699.26220703 C-195.68052358 697.17546483 -197.78614879 696.35102749 -200.53662109 695.26269531 C-204.19174347 693.60591688 -207.34639896 691.17536146 -210.58447266 688.82861328 C-211.69870605 688.03015991 -211.69870605 688.03015991 -212.83544922 687.21557617 C-223.53505275 679.50813723 -233.85531717 671.42327851 -243.83129883 662.7980957 C-244.96744446 661.81629824 -246.10865134 660.84034051 -247.25366211 659.86889648 C-253.11918153 654.83781482 -258.57143214 649.42749658 -264.02197266 643.95361328 C-264.92882812 643.050625 -265.83568359 642.14763672 -266.77001953 641.21728516 C-326.44008674 581.46067688 -359.91217269 501.30206257 -370.45947266 418.39111328 C-370.59665962 417.31832375 -370.59665962 417.31832375 -370.73661804 416.22386169 C-371.59321753 408.77383927 -371.62107955 401.35616 -371.62744141 393.86376953 C-371.6306669 392.4662625 -371.63403186 391.06875578 -371.63752747 389.67124939 C-371.64348255 386.75063294 -371.64537136 383.83004591 -371.64477539 380.90942383 C-371.64469449 377.95493398 -371.65158389 375.00060037 -371.6652832 372.04614258 C-371.83695962 334.42521674 -371.83695962 334.42521674 -367.93266296 317.46018982 C-367.3524836 314.92329188 -366.8595369 312.37482364 -366.38134766 309.81689453 C-359.10177313 271.64671229 -346.67573978 235.94489446 -328.83447266 201.45361328 C-328.2839624 200.3870752 -327.73345215 199.32053711 -327.16625977 198.22167969 C-324.4642533 193.04069727 -321.68359498 187.98261207 -318.52685547 183.06469727 C-317.13982929 180.88993413 -315.88434948 178.65374519 -314.64697266 176.39111328 C-314.22802734 175.62798828 -313.80908203 174.86486328 -313.37744141 174.07861328 C-313.07451172 173.52173828 -312.77158203 172.96486328 -312.45947266 172.39111328 C-311.79947266 172.39111328 -311.13947266 172.39111328 -310.45947266 172.39111328 C-310.19134766 171.65892578 -309.92322266 170.92673828 -309.64697266 170.17236328 C-304.18875976 157.38865413 -292.64905298 145.52554384 -283.48217773 135.14794922 C-280.75921637 132.03834104 -278.5369227 128.98337065 -276.45947266 125.39111328 C-273.89697266 122.57861328 -273.89697266 122.57861328 -271.45947266 120.39111328 C-270.79947266 120.39111328 -270.13947266 120.39111328 -269.45947266 120.39111328 C-268.46947266 118.41111328 -268.46947266 118.41111328 -267.45947266 116.39111328 C-266.79947266 116.39111328 -266.13947266 116.39111328 -265.45947266 116.39111328 C-265.45947266 115.73111328 -265.45947266 115.07111328 -265.45947266 114.39111328 C-264.79947266 114.39111328 -264.13947266 114.39111328 -263.45947266 114.39111328 C-263.45947266 113.73111328 -263.45947266 113.07111328 -263.45947266 112.39111328 C-262.79947266 112.39111328 -262.13947266 112.39111328 -261.45947266 112.39111328 C-260.96447266 110.41111328 -260.96447266 110.41111328 -260.45947266 108.39111328 C-259.46947266 108.39111328 -258.47947266 108.39111328 -257.45947266 108.39111328 C-257.45947266 107.73111328 -257.45947266 107.07111328 -257.45947266 106.39111328 C-256.79947266 106.39111328 -256.13947266 106.39111328 -255.45947266 106.39111328 C-255.45947266 105.73111328 -255.45947266 105.07111328 -255.45947266 104.39111328 C-254.79947266 104.39111328 -254.13947266 104.39111328 -253.45947266 104.39111328 C-253.45947266 103.73111328 -253.45947266 103.07111328 -253.45947266 102.39111328 C-252.06103516 100.98095703 -252.06103516 100.98095703 -250.08447266 99.32861328 C-246.96797035 96.68990227 -243.94631367 93.9879566 -240.95947266 91.20361328 C-235.35092738 86.13251748 -229.32505952 81.68396866 -223.24462891 77.20361328 C-220.20993952 74.96602665 -217.26156226 72.64344494 -214.33447266 70.26611328 C-211.17691541 67.76184374 -208.34096285 66.55556034 -204.45947266 65.39111328 C-204.12947266 64.40111328 -203.79947266 63.41111328 -203.45947266 62.39111328 C-201.13134766 60.92626953 -201.13134766 60.92626953 -198.20947266 59.45361328 C-195.03918169 57.80702805 -192.37649854 56.32437323 -189.58447266 54.07861328 C-187.19015109 52.17724027 -185.46625959 51.73474607 -182.45947266 51.39111328 C-182.45947266 50.73111328 -182.45947266 50.07111328 -182.45947266 49.39111328 C-181.42048828 48.87162109 -180.38150391 48.35212891 -179.31103516 47.81689453 C-178.64088379 47.48173828 -177.97073242 47.14658203 -177.28027344 46.80126953 C-175.80234299 46.06246863 -174.32414781 45.32419709 -172.84570312 44.58642578 C-169.82531103 43.07854447 -166.80664789 41.56929587 -163.80322266 40.02783203 C-134.47278902 25.0011486 -102.75907935 13.83466263 -70.45947266 7.39111328 C-69.11272461 7.12089355 -69.11272461 7.12089355 -67.73876953 6.84521484 C-45.12635851 2.37607142 -23.07625517 -0.11614066 0 0 Z M-50.45947266 39.39111328 C-51.40226074 39.56046387 -52.34504883 39.72981445 -53.31640625 39.90429688 C-104.56637953 49.25145119 -153.65638665 69.00583104 -195.45947266 100.39111328 C-197.33414192 101.72491158 -199.20914739 103.05823747 -201.08447266 104.39111328 C-205.30687735 107.46031498 -209.24770508 110.7142039 -213.09619141 114.23876953 C-215.0826342 116.04790999 -217.09763044 117.80733208 -219.13134766 119.5625 C-223.25673401 123.16997831 -227.18575581 126.9398416 -231.07275391 130.80126953 C-231.7678154 131.49063095 -232.46287689 132.17999237 -233.17900085 132.89024353 C-234.64000129 134.34186367 -236.09960453 135.79489128 -237.55786133 137.24926758 C-239.74907122 139.43081285 -241.95074714 141.60141297 -244.15283203 143.77197266 C-252.62630254 152.18191188 -260.37977427 160.776938 -267.45947266 170.39111328 C-267.90402298 170.99476212 -268.3485733 171.59841095 -268.80659485 172.22035217 C-275.04914673 180.71773697 -280.89571558 189.43535287 -286.45947266 198.39111328 C-286.84522461 199.01163574 -287.23097656 199.6321582 -287.62841797 200.27148438 C-297.11812275 215.61878975 -304.63767246 231.69803266 -311.45947266 248.39111328 C-311.78689453 249.18904297 -312.11431641 249.98697266 -312.45166016 250.80908203 C-313.47325548 253.32929859 -314.46905575 255.85847576 -315.45947266 258.39111328 C-316.15556641 260.14681641 -316.15556641 260.14681641 -316.86572266 261.93798828 C-333.02975812 303.32898032 -340.28927756 351.61174318 -336.64282227 395.88256836 C-336.49658434 397.88336026 -336.38194573 399.88645431 -336.27807617 401.88989258 C-335.75756609 411.64245086 -334.66212739 421.1833429 -333.14697266 430.82861328 C-333.03520691 431.55055878 -332.92344116 432.27250427 -332.80828857 433.0163269 C-331.16186186 443.61305928 -329.32277133 454.04659533 -326.45947266 464.39111328 C-326.23598145 465.23738281 -326.01249023 466.08365234 -325.78222656 466.95556641 C-312.98477043 515.24339693 -289.68084056 559.54991064 -257.72460938 597.83496094 C-256.6709187 599.13102893 -255.68301632 600.4802366 -254.71337891 601.84033203 C-254.29958984 602.35208984 -253.88580078 602.86384766 -253.45947266 603.39111328 C-252.79947266 603.39111328 -252.13947266 603.39111328 -251.45947266 603.39111328 C-251.06767822 604.26509766 -251.06767822 604.26509766 -250.66796875 605.15673828 C-249.38587212 607.52719249 -247.97644246 609.18994192 -246.12353516 611.14111328 C-245.14513672 612.17751953 -245.14513672 612.17751953 -244.14697266 613.23486328 C-243.12603516 614.30220703 -243.12603516 614.30220703 -242.08447266 615.39111328 C-241.41158203 616.10267578 -240.73869141 616.81423828 -240.04541016 617.54736328 C-238.19163263 619.50331752 -236.32647481 621.44779728 -234.45947266 623.39111328 C-233.68345703 624.21611328 -232.90744141 625.04111328 -232.10791016 625.89111328 C-230.5843908 627.61545384 -230.5843908 627.61545384 -228.45947266 627.39111328 C-227.96447266 628.87611328 -227.96447266 628.87611328 -227.45947266 630.39111328 C-225.32028644 632.40148113 -225.32028644 632.40148113 -222.64697266 634.45361328 C-221.14263672 635.65244141 -221.14263672 635.65244141 -219.60791016 636.87548828 C-219.08422852 637.29121094 -218.56054688 637.70693359 -218.02099609 638.13525391 C-215.56474401 640.11070117 -213.17435736 642.16323175 -210.77197266 644.20361328 C-205.95911198 648.22272992 -201.03347902 652.06040429 -196.02197266 655.82861328 C-195.34755127 656.33690674 -194.67312988 656.8452002 -193.97827148 657.36889648 C-191.2492298 659.40381902 -188.56321803 661.32903849 -185.63916016 663.07861328 C-183.45947266 664.39111328 -183.45947266 664.39111328 -181.02197266 666.95361328 C-178.19160983 669.64590963 -176.12253381 670.22205121 -172.45947266 671.39111328 C-171.82009766 672.05111328 -171.18072266 672.71111328 -170.52197266 673.39111328 C-167.77369776 676.05610712 -165.12677681 676.35204377 -161.45947266 677.39111328 C-160.28868569 678.05739252 -159.14396688 678.77059394 -158.02197266 679.51611328 C-139.7878832 691.36136458 -118.35478114 698.54489241 -97.89697266 705.45361328 C-96.77379639 705.83573975 -95.65062012 706.21786621 -94.4934082 706.61157227 C-88.77974059 708.49767509 -83.46370776 709.91805233 -77.45947266 710.39111328 C-77.45947266 711.05111328 -77.45947266 711.71111328 -77.45947266 712.39111328 C-72.2860599 713.62742026 -67.11185754 714.8602421 -61.93603516 716.08642578 C-58.86364432 716.81506015 -55.79671031 717.55645651 -52.73291016 718.32080078 C-33.46769971 723.05175119 -13.63956736 723.60352158 6.10302734 723.57861328 C7.43337006 723.57770691 7.43337006 723.57770691 8.79058838 723.57678223 C21.81634639 723.55270341 34.62767421 723.22911014 47.54052734 721.39111328 C48.54116211 721.25688965 49.54179688 721.12266602 50.57275391 720.984375 C72.33396884 718.03829148 93.071911 713.24934638 113.88671875 706.27636719 C116.40527738 705.43622978 118.9307652 704.6211124 121.45849609 703.80908203 C156.22615055 692.40495399 188.76435778 673.8525123 217.54052734 651.39111328 C218.66502528 650.5336836 219.79005236 649.67694757 220.91552734 648.82080078 C238.19917169 635.58018392 255.02269801 620.20469166 268.45068359 603.03955078 C270.38729084 600.58530833 272.4061567 598.22437086 274.46118164 595.86914062 C280.91171151 588.43988626 286.58297141 580.55498216 292.13232422 572.4375 C293.3997468 570.59569416 294.69102252 568.7744856 295.99365234 566.95751953 C308.51315864 549.21293003 318.54991194 529.02350658 326.55078125 508.88134766 C327.55263216 506.36065716 328.58331292 503.85294682 329.61474609 501.34423828 C345.9009491 461.0005355 364.09093067 389.04232327 349.54052734 345.39111328 C349.40965282 343.03828026 349.31053573 340.68363849 349.22802734 338.32861328 C348.79858478 329.08967861 346.76756187 320.34068459 344.54052734 311.39111328 C343.88052734 311.39111328 343.22052734 311.39111328 342.54052734 311.39111328 C342.44642578 310.17294922 342.35232422 308.95478516 342.25537109 307.69970703 C341.55852322 301.43787365 339.81282463 295.50232588 338.10302734 289.45361328 C335.96003333 281.80511299 333.95349434 274.21159286 332.54052734 266.39111328 C331.88052734 266.39111328 331.22052734 266.39111328 330.54052734 266.39111328 C330.18861328 264.76689453 330.18861328 264.76689453 329.82958984 263.10986328 C328.41712645 257.47979904 326.17164452 252.22721779 323.91552734 246.89111328 C323.24348267 245.29444824 323.24348267 245.29444824 322.55786133 243.66552734 C318.89124229 235.04509277 314.94137325 226.6577 310.54052734 218.39111328 C310.13753418 217.62379883 309.73454102 216.85648438 309.31933594 216.06591797 C300.89949764 200.08754111 291.37406707 185.03423579 280.28271484 170.77392578 C278.54052734 168.39111328 278.54052734 168.39111328 277.61083984 166.38330078 C276.07532591 163.52522741 273.87103182 161.63862258 271.54052734 159.39111328 C269.55717185 157.31002525 267.61199199 155.19418678 265.66552734 153.07861328 C265.13233887 152.50103271 264.59915039 151.92345215 264.04980469 151.32836914 C261.36708707 148.41317112 258.7290097 145.47486034 256.16552734 142.45361328 C248.31526317 133.41623599 239.68047792 124.98786417 230.28271484 117.57861328 C227.84890937 115.63711604 225.50422252 113.62156847 223.16650391 111.56640625 C202.73351577 93.75614083 178.88544051 80.09265419 154.54052734 68.39111328 C152.81018391 67.49755505 151.08087672 66.60198473 149.35302734 65.70361328 C138.89743312 60.49318427 127.62059196 56.92473809 116.59570312 53.10986328 C114.73680161 52.45975565 112.88615222 51.78616898 111.03662109 51.10986328 C95.21517631 45.49406035 78.57699425 42.22746967 62.10302734 39.14111328 C60.91954712 38.91476196 60.91954712 38.91476196 59.7121582 38.68383789 C43.17052685 35.7189388 26.71070515 35.06735575 9.93408203 35.13037109 C6.54490274 35.14109943 3.15625328 35.13040595 -0.23291016 35.11767578 C-17.23522625 35.10590733 -33.73429463 36.26880065 -50.45947266 39.39111328 Z " fill="#F8C3A2" transform="translate(507.45947265625,131.60888671875)"/>
<path d="M0 0 C5.54832848 2.87691106 8.82375601 5.95397385 12.01953125 11.31640625 C12.68774902 12.42725586 13.3559668 13.53810547 14.04443359 14.68261719 C14.75901046 15.89244739 15.47335963 17.1024121 16.1875 18.3125 C16.94272968 19.57632024 17.69876595 20.8396588 18.45556641 22.10253906 C20.40012257 25.35306001 22.33297808 28.61036158 24.26190186 31.87017822 C25.96298804 34.74300563 27.67145394 37.61142049 29.37890625 40.48046875 C32.67942878 46.03456046 35.96789384 51.59571944 39.25341797 57.15869141 C43.10044067 63.67185191 46.95419707 70.18101593 50.8125 76.6875 C51.21206909 77.36144806 51.61163818 78.03539612 52.02331543 78.72976685 C57.96332121 88.74367702 63.9795239 98.70850637 70.04342651 108.64776611 C76.28146052 118.87888118 82.37320237 129.19162735 88.40478516 139.5456543 C92.20280594 146.06158959 96.04093503 152.55041637 99.92875671 159.01296997 C102.62994937 163.50391146 105.31490931 168.00416239 107.98828125 172.51171875 C108.37042786 173.15604355 108.75257446 173.80036835 109.14630127 174.46421814 C109.92686889 175.78063671 110.70734499 177.09710956 111.48773193 178.41363525 C117.68574823 188.86894493 123.89991511 199.31382443 130.16601562 209.72851562 C133.70319338 215.61394528 137.20041919 221.52227273 140.6875 227.4375 C148.72252626 241.06543939 156.86767204 254.62767945 165.04296875 268.171875 C165.79972598 269.42693455 166.55625282 270.68213305 167.3125 271.9375 C167.66127197 272.51636963 168.01004395 273.09523926 168.36938477 273.69165039 C171.18265573 278.38267716 173.87735456 283.13644531 176.5637207 287.90063477 C178.41619162 291.15910271 180.36665152 294.29411233 182.5 297.375 C185.52430996 301.76272839 187.79449092 306.43941235 190.078125 311.24609375 C191.25948501 313.83627035 191.25948501 313.83627035 193.375 315.75 C197.375 324.75 197.375 324.75 197.375 328.75 C198.035 328.75 198.695 328.75 199.375 328.75 C201.375 335.5 201.375 335.5 201.375 337.75 C202.035 337.75 202.695 337.75 203.375 337.75 C203.65118164 338.60867676 203.92736328 339.46735352 204.21191406 340.35205078 C205.34853387 343.67267934 206.62607592 346.88146651 207.984375 350.1171875 C208.4894458 351.32592529 208.9945166 352.53466309 209.51489258 353.7800293 C209.77847565 354.40904144 210.04205872 355.03805359 210.31362915 355.68612671 C217.81006831 373.59981644 217.81006831 373.59981644 221.1875 382.4375 C221.87779297 384.23767578 221.87779297 384.23767578 222.58203125 386.07421875 C223.375 388.75 223.375 388.75 222.375 390.75 C219.53960271 391.26416006 216.79772431 391.64784265 213.9375 391.9375 C212.69516602 392.06656738 212.69516602 392.06656738 211.42773438 392.19824219 C205.5374163 392.75580961 200.22307977 392.62804031 194.375 391.75 C192.93553842 391.6054313 191.49533786 391.46813546 190.0546875 391.3359375 C189.26578125 391.26020508 188.476875 391.18447266 187.6640625 391.10644531 C186.09953275 390.95644792 184.5344364 390.81220439 182.96875 390.67480469 C177.69658441 390.13140166 173.26159546 388.75655311 168.375 386.75 C166.94104136 386.28070445 165.50420349 385.81993454 164.0625 385.375 C158.64028891 383.60235407 153.52576553 381.18578258 148.375 378.75 C148.375 377.76 148.375 376.77 148.375 375.75 C147.055 376.08 145.735 376.41 144.375 376.75 C144.375 376.09 144.375 375.43 144.375 374.75 C143.715 374.75 143.055 374.75 142.375 374.75 C142.375 374.09 142.375 373.43 142.375 372.75 C141.83875 372.646875 141.3025 372.54375 140.75 372.4375 C134.50348657 370.62929874 131.10569573 367.90713821 127.375 362.75 C127.375 362.09 127.375 361.43 127.375 360.75 C126.715 360.75 126.055 360.75 125.375 360.75 C125.375 360.09 125.375 359.43 125.375 358.75 C124.694375 358.585 124.01375 358.42 123.3125 358.25 C115.89592733 354.46281396 111.68886871 346.38041229 107.8125 339.3125 C107.31073242 338.416521 106.80896484 337.52054199 106.29199219 336.59741211 C105.2131725 334.66879868 104.13858822 332.73781102 103.06787109 330.8046875 C101.31136229 327.63516945 99.54211837 324.47305181 97.76953125 321.3125 C95.376793 317.04616939 92.9876503 312.77786581 90.6015625 308.5078125 C86.90277302 301.89679511 83.15617976 295.31422201 79.375 288.75 C76.80020693 291.30155486 74.2671812 293.86514787 71.7890625 296.51171875 C56.27870496 312.94348367 36.50346295 324.20102755 13.578125 324.92578125 C-4.89028055 325.29601439 -19.73103618 322.38195816 -34.625 310.75 C-35.31207031 310.23953125 -35.99914062 309.7290625 -36.70703125 309.203125 C-50.10485882 298.52714406 -57.93522702 281.05011474 -61.625 264.75 C-61.625 263.76 -61.625 262.77 -61.625 261.75 C-58.04593232 262.37216768 -54.87417656 263.35293763 -51.5 264.6875 C-31.09142999 272.15074036 -9.13633049 269.68091714 10.375 260.75 C23.45607741 253.88940984 32.73736073 244.1982587 40.375 231.75 C40.99503906 230.75355469 41.61507813 229.75710938 42.25390625 228.73046875 C43.63201833 225.83072294 43.63201833 225.83072294 42.890625 222.95703125 C40.8529199 218.64528927 38.53754392 214.54920953 36.125 210.4375 C35.03272611 208.55273662 33.94162889 206.66729096 32.8515625 204.78125 C32.28083008 203.79511719 31.71009766 202.80898438 31.12207031 201.79296875 C28.19907401 196.70182483 25.35412213 191.5674607 22.5 186.4375 C16.66778122 175.98185447 10.68674576 165.61928594 4.62890625 155.29296875 C4.10441895 154.39755371 3.57993164 153.50213867 3.03955078 152.57958984 C1.83635107 150.53425623 0.62540452 148.49347312 -0.59033203 146.45556641 C-1.23212402 145.3732373 -1.87391602 144.2909082 -2.53515625 143.17578125 C-3.12562744 142.18618408 -3.71609863 141.19658691 -4.32446289 140.17700195 C-5.625 137.75 -5.625 137.75 -5.625 135.75 C-6.285 135.75 -6.945 135.75 -7.625 135.75 C-7.90102051 136.471875 -8.17704102 137.19375 -8.46142578 137.9375 C-9.58298918 140.64845475 -10.84610633 143.17110737 -12.2421875 145.75 C-12.76031006 146.7083374 -13.27843262 147.6666748 -13.81225586 148.65405273 C-14.36921143 149.67571533 -14.92616699 150.69737793 -15.5 151.75 C-16.37120483 153.35307007 -16.37120483 153.35307007 -17.26000977 154.98852539 C-21.42932665 162.63048085 -25.69946309 170.20925199 -30.03930664 177.75537109 C-39.57401319 194.335175 -48.81509015 211.08235029 -58.09130859 227.80761719 C-62.04751914 234.93309974 -66.03995006 242.03678981 -70.0625 249.125 C-75.33488292 258.41711616 -80.50663963 267.76262644 -85.65548706 277.12347412 C-90.60046354 286.11137739 -95.60419733 295.06341511 -100.67822266 303.97924805 C-103.74665809 309.38434212 -106.76504293 314.81381964 -109.7421875 320.26953125 C-110.09569275 320.91594574 -110.449198 321.56236023 -110.81341553 322.22836304 C-112.5434418 325.39199594 -114.26805918 328.55832046 -115.98242188 331.73046875 C-122.08333991 342.89993745 -128.89078454 352.50016896 -137.625 361.75 C-138.21152344 362.389375 -138.79804688 363.02875 -139.40234375 363.6875 C-155.02741557 380.15816394 -181.57897175 392.1113328 -204.27636719 392.83447266 C-215.45586222 393.05849968 -226.49109407 392.82218132 -237.625 391.75 C-225.98146005 358.86151263 -214.13821658 326.42615318 -195.52050781 296.77441406 C-193.34386096 293.30142318 -191.23544855 289.7919611 -189.13891602 286.27026367 C-187.73250355 283.90811372 -186.31440352 281.55329893 -184.89453125 279.19921875 C-182.33313449 274.94104887 -179.79406603 270.67000773 -177.26171875 266.39453125 C-176.87317719 265.73859985 -176.48463562 265.08266846 -176.08432007 264.40686035 C-175.27865595 263.04665726 -174.47300223 261.68644802 -173.6673584 260.32623291 C-167.17483747 249.36563319 -160.63525832 238.43730028 -154 227.5625 C-147.86737958 217.51034377 -141.86146244 207.39048054 -135.9251709 197.22125244 C-131.0843363 188.92902585 -126.20191046 180.66408239 -121.25 172.4375 C-115.59310904 163.03954264 -109.97191481 153.62124533 -104.375 144.1875 C-103.97754578 143.51769104 -103.58009155 142.84788208 -103.17059326 142.15777588 C-100.32123149 137.35567646 -97.47297722 132.55292065 -94.625 127.75 C-82.84666467 107.88663532 -71.03167428 88.04698453 -59.12646484 68.25927734 C-57.70865777 65.90240954 -56.29164939 63.54506381 -54.875 61.1875 C-54.18047729 60.03266113 -54.18047729 60.03266113 -53.47192383 58.85449219 C-50.27094702 53.52183154 -47.09918391 48.17240998 -43.9375 42.81640625 C-42.6698429 40.67173019 -41.40200081 38.52716355 -40.13415527 36.38259888 C-39.30875592 34.98464124 -38.48457418 33.58596381 -37.66174316 32.18649292 C-15.57873515 -5.37197764 -15.57873515 -5.37197764 0 0 Z " fill="#FCD1B7" transform="translate(525.625,300.25)"/>
<path d="M0 0 C5.30623043 7.95934564 7.32468487 18.3517847 8.54296875 27.7109375 C9.03089877 31.22236552 9.71301575 34.65490622 10.4375 38.125 C17.91378123 75.31761117 18.84168794 113.29428611 15 151 C14.86546978 152.45829505 14.73131794 153.91662509 14.59765625 155.375 C12.4358848 177.39688337 7.38237339 198.85767286 1 220 C0.55076748 221.51822509 0.10154746 223.03645388 -0.34765625 224.5546875 C-3.14428442 233.86645221 -6.47559881 242.94500002 -10 252 C-10.24363281 252.63292969 -10.48726562 253.26585937 -10.73828125 253.91796875 C-25.39252273 291.92495869 -47.40367556 327.52730992 -74.859375 357.64453125 C-76.70684121 359.67741834 -78.51707324 361.73381416 -80.3125 363.8125 C-88.41690277 373.08003465 -96.64558608 381.96829476 -106 390 C-107.08113067 390.94355057 -108.1618349 391.88758991 -109.2421875 392.83203125 C-178.1209622 452.76336568 -266.25607845 488.19261515 -357.87329102 488.18530273 C-360.90069995 488.18747361 -363.92773399 488.20565 -366.95507812 488.22460938 C-384.73927829 488.27634096 -402.49986057 487.2422734 -420.0625 484.3125 C-421.07957031 484.14371338 -422.09664063 483.97492676 -423.14453125 483.80102539 C-450.3260362 479.1045833 -477.66492635 472.10611669 -503 461 C-499.51799235 459.79344386 -497.35462394 460.21667813 -493.875 461.3125 C-493.00617188 461.57675781 -492.13734375 461.84101562 -491.2421875 462.11328125 C-489 463 -489 463 -487 465 C-485.00516988 465.60696398 -485.00516988 465.60696398 -482.75 466 C-479.04494752 466.75985973 -475.57805555 467.75863379 -472 469 C-470.37629587 469.48353964 -468.75115737 469.96227593 -467.125 470.4375 C-463.98661759 471.3677391 -460.9245654 472.37388986 -457.875 473.5625 C-449.47773229 476.76145913 -440.87038455 477.82890991 -432 479 C-432 479.66 -432 480.32 -432 481 C-431.28714844 480.98839844 -430.57429688 480.97679687 -429.83984375 480.96484375 C-424.44713401 480.9140376 -419.30068338 480.96290977 -414 482 C-413.67 482.33 -413.34 482.66 -413 483 C-379.10900403 487.58348119 -341.71519011 487.60474382 -308 482 C-306.86884766 481.82307617 -305.73769531 481.64615234 -304.57226562 481.46386719 C-269.37979422 475.91774826 -233.50963577 466.2052628 -201.6953125 449.86328125 C-196.82173463 447.37314171 -191.84210391 445.10354013 -186.85986328 442.84033203 C-182.62502329 440.88400361 -178.8582585 438.64719403 -175 436 C-173.34533924 435.08218036 -171.6785474 434.1858692 -170 433.3125 C-149.07369625 422.00327115 -128.94246027 407.3977633 -111.4765625 391.265625 C-109.45656178 389.41767481 -107.40728519 387.62825533 -105.33203125 385.84375 C-100.37388004 381.5149115 -95.71306252 376.90496437 -91.0625 372.25 C-90.1758667 371.36256104 -89.2892334 370.47512207 -88.37573242 369.56079102 C-82.49995399 363.62961657 -77.08357863 357.62470562 -72 351 C-70.54507052 349.24716906 -69.08659244 347.49727892 -67.625 345.75 C-62.13873642 339.03290512 -57.02160817 332.06812289 -52 325 C-51.59168945 324.42862305 -51.18337891 323.85724609 -50.76269531 323.26855469 C-39.14951906 306.8807556 -29.75764781 288.97431133 -21 270.9375 C-20.4846167 269.88143555 -19.9692334 268.82537109 -19.43823242 267.73730469 C-12.96440229 254.15984933 -8.10443222 239.94641706 -3.5625 225.625 C-3.20973999 224.51313828 -3.20973999 224.51313828 -2.84985352 223.3788147 C14.25673793 168.96457294 16.61429956 112.54008517 11 56.0625 C10.9292627 55.33039307 10.85852539 54.59828613 10.78564453 53.84399414 C10.30106456 49.37302816 9.23789102 45.31221379 8 41 C7.23291706 37.18007104 6.58437262 33.34188224 5.9375 29.5 C5.76412109 28.49324219 5.59074219 27.48648437 5.41210938 26.44921875 C4.53283219 21.30831074 3.70404676 16.16784837 3 11 C2.34 11 1.68 11 1 11 C-0.17571451 7.32589215 -0.07366746 3.83070817 0 0 Z " fill="#CD4002" transform="translate(875,400)"/>
<path d="M0 0 C0.33 0 0.66 0 1 0 C3.56978359 10.3269443 5.45108622 20.18957536 5.82421875 30.83984375 C5.86245897 34.02579584 5.86245897 34.02579584 7 37 C14.32775216 114.31941663 -5.50722181 195.15031634 -50 259 C-50.39654785 259.57669434 -50.7930957 260.15338867 -51.20166016 260.74755859 C-57.49737292 269.89347943 -64.3109782 278.55743268 -71.41357422 287.08886719 C-72.86196249 288.8337092 -74.29361421 290.5908818 -75.72265625 292.3515625 C-82.08010088 300.07816082 -89.01204596 307.22123012 -96.0625 314.3125 C-96.97249756 315.2317627 -97.88249512 316.15102539 -98.82006836 317.09814453 C-104.90612974 323.15629573 -111.25906385 328.68424981 -118 334 C-118.69971924 334.55905029 -119.39943848 335.11810059 -120.12036133 335.6940918 C-181.79565506 384.68091793 -257.53776106 412.27091039 -336.4375 412.1875 C-337.31685211 412.18756042 -338.19620422 412.18762085 -339.10220337 412.18768311 C-352.81906677 412.17428088 -366.37856502 411.73936187 -380 410 C-381.2684375 409.84402344 -382.536875 409.68804688 -383.84375 409.52734375 C-391.03908434 408.52705778 -397.98231627 406.84851979 -405 405 C-407.91486639 404.26359111 -410.83246695 403.5382609 -413.75 402.8125 C-415.14067098 402.46502773 -416.53129992 402.11738713 -417.921875 401.76953125 C-418.93765625 401.51558594 -419.9534375 401.26164062 -421 401 C-417.71510944 399.92642003 -415.54695373 400.10422281 -412.203125 400.890625 C-411.25590576 401.10428711 -410.30868652 401.31794922 -409.33276367 401.53808594 C-407.80679565 401.8904834 -407.80679565 401.8904834 -406.25 402.25 C-393.90743876 404.96745527 -381.56194855 406.68475568 -369 408 C-367.78074829 408.14356934 -367.78074829 408.14356934 -366.53686523 408.29003906 C-357.27981263 409.28732362 -347.98756442 409.24374026 -338.6875 409.25 C-337.33265503 409.25101212 -337.33265503 409.25101212 -335.95043945 409.25204468 C-310.80494481 409.22238936 -286.55149741 406.58137374 -262 401 C-261.01515625 400.78021484 -260.0303125 400.56042969 -259.015625 400.33398438 C-256.15351299 399.69228069 -253.29474598 399.03801296 -250.4375 398.375 C-249.17957642 398.08423584 -249.17957642 398.08423584 -247.89624023 397.78759766 C-243.46762672 396.7235772 -239.25366353 395.43652091 -235.01293945 393.77685547 C-232.89702248 392.9602578 -230.76529479 392.21970045 -228.6171875 391.4921875 C-210.37097499 385.28751239 -192.63211861 378.38854747 -175.77783203 368.98730469 C-173.28646653 367.60374494 -170.76544553 366.27665805 -168.25 364.9375 C-151.96682717 355.97563345 -136.42023357 345.48328758 -122.12109375 333.609375 C-121.13238281 332.78953125 -120.14367187 331.9696875 -119.125 331.125 C-117.76761719 329.98417969 -117.76761719 329.98417969 -116.3828125 328.8203125 C-114 327 -114 327 -111 326 C-111 325.34 -111 324.68 -111 324 C-109.3203125 322.2734375 -109.3203125 322.2734375 -107.125 320.375 C-106.04605469 319.42753906 -106.04605469 319.42753906 -104.9453125 318.4609375 C-103 317 -103 317 -101 317 C-101 316.34 -101 315.68 -101 315 C-99.7421875 313.80078125 -99.7421875 313.80078125 -97.875 312.3125 C-88.36328725 304.20554198 -79.73381642 294.72773705 -72.74609375 284.3671875 C-71 282 -71 282 -68.640625 279.71484375 C-64.7459934 275.71074765 -61.89468244 271.10174651 -58.84179688 266.44335938 C-58.37451172 265.74404297 -57.90722656 265.04472656 -57.42578125 264.32421875 C-57.00723877 263.68572998 -56.58869629 263.04724121 -56.1574707 262.3894043 C-55.58452271 261.70164917 -55.58452271 261.70164917 -55 261 C-54.34 261 -53.68 261 -53 261 C-52.773125 260.319375 -52.54625 259.63875 -52.3125 258.9375 C-50.99716868 255.99366324 -49.32223422 253.64969136 -47.4140625 251.06640625 C-45.20127502 247.83280244 -43.42793181 244.38213513 -41.58984375 240.92578125 C-40.03398282 238.06253842 -38.3753138 235.28703664 -36.6875 232.5 C1.33351785 167.51253337 15.05897579 82.12858343 0.39257812 8.28076172 C-0.08658528 5.49696537 -0.1523124 2.81777939 0 0 Z " fill="#CE5114" transform="translate(851,443)"/>
<path d="M0 0 C4.71204779 0.49083831 8.63901122 1.4994488 13.03515625 3.24609375 C15.96433652 4.37001381 18.98073832 5.15248795 22 6 C23.43990838 6.47188009 24.87728221 6.95154029 26.3125 7.4375 C29.54425623 8.53124063 32.78831172 9.54084362 36.0625 10.5 C39.13925692 11.40828527 42.13592987 12.39845899 45.125 13.5625 C53.52226771 16.76145913 62.12961545 17.82890991 71 19 C71 19.66 71 20.32 71 21 C72.06927734 20.98259766 72.06927734 20.98259766 73.16015625 20.96484375 C78.55286599 20.9140376 83.69931662 20.96290977 89 22 C89.33 22.33 89.66 22.66 90 23 C123.82734444 27.57487284 161.35835056 27.72713419 195 22 C196.84827393 21.68675781 196.84827393 21.68675781 198.73388672 21.3671875 C205.97242914 20.1265951 213.19463486 18.81154581 220.40405273 17.41137695 C223 17 223 17 227 17 C227 17.66 227 18.32 227 19 C214.65970014 21.6304118 202.3307711 24.12712392 189.8125 25.75 C188.93134521 25.86512939 188.05019043 25.98025879 187.14233398 26.09887695 C173.13043623 27.82444158 159.2272944 28.18642817 145.12670898 28.18530273 C142.09930005 28.18747361 139.07226601 28.20565 136.04492188 28.22460938 C118.26072171 28.27634096 100.50013943 27.2422734 82.9375 24.3125 C81.92042969 24.14371338 80.90335937 23.97492676 79.85546875 23.80102539 C52.6739638 19.1045833 25.33507365 12.10611669 0 1 C0 0.67 0 0.34 0 0 Z " fill="#CD6029" transform="translate(372,860)"/>
<path d="M0 0 C5.85248629 0.54189688 11.46174112 1.45922049 17.20117188 2.71411133 C60.4769536 12.0949202 107.5958027 12.40005113 150.84960938 2.6262207 C156.72403354 1.31471435 161.97717702 0.77097179 168 1 C164.67440012 3.21706659 162.39384745 3.68307919 158.48828125 4.4375 C157.52699814 4.62515678 157.52699814 4.62515678 156.54629517 4.81660461 C154.46979129 5.21897839 152.39141462 5.61028744 150.3125 6 C149.25447678 6.20125992 149.25447678 6.20125992 148.17507935 6.40658569 C126.98441352 10.43387909 106.11090645 12.21028032 84.5625 12.1875 C83.68314789 12.18756042 82.80379578 12.18762085 81.89779663 12.18768311 C68.18093323 12.17428088 54.62143498 11.73936187 41 10 C39.7315625 9.84402344 38.463125 9.68804688 37.15625 9.52734375 C29.96091566 8.52705778 23.01768373 6.84851979 16 5 C13.08513361 4.26359111 10.16753305 3.5382609 7.25 2.8125 C5.85932902 2.46502773 4.46870008 2.11738713 3.078125 1.76953125 C1.55445313 1.38861328 1.55445313 1.38861328 0 1 C0 0.67 0 0.34 0 0 Z " fill="#CB6E41" transform="translate(430,843)"/>
<path d="M0 0 C5.30623043 7.95934564 7.32468487 18.3517847 8.54296875 27.7109375 C9.03089877 31.22236552 9.71301575 34.65490622 10.4375 38.125 C11.63736866 44.00252922 12.68274332 49.88824345 13.625 55.8125 C13.7480249 56.57643066 13.8710498 57.34036133 13.99780273 58.12744141 C15.48767646 67.675383 16.14654945 77.03086757 16.09765625 86.6953125 C16.0962413 87.76876923 16.09482635 88.84222595 16.09336853 89.94821167 C16.08781925 93.3405041 16.07527647 96.73272788 16.0625 100.125 C16.05747844 102.44010321 16.05291668 104.75520746 16.04882812 107.0703125 C16.0378665 112.71356466 16.02117973 118.35677742 16 124 C15.34 123.67 14.68 123.34 14 123 C14.01571045 122.05423096 14.01571045 122.05423096 14.03173828 121.08935547 C14.34021773 99.32007812 13.15329494 77.7237771 11 56.0625 C10.89389404 54.9643396 10.89389404 54.9643396 10.78564453 53.84399414 C10.30106456 49.37302816 9.23789102 45.31221379 8 41 C7.23291706 37.18007104 6.58437262 33.34188224 5.9375 29.5 C5.76412109 28.49324219 5.59074219 27.48648437 5.41210938 26.44921875 C4.53283219 21.30831074 3.70404676 16.16784837 3 11 C2.34 11 1.68 11 1 11 C-0.17571451 7.32589215 -0.07366746 3.83070817 0 0 Z " fill="#CB622D" transform="translate(875,400)"/>
<path d="M0 0 C0.99 0.495 0.99 0.495 2 1 C-0.87778114 4.15883922 -3.54426461 5.99109715 -7.40234375 7.8046875 C-8.45059326 8.30258789 -9.49884277 8.80048828 -10.57885742 9.31347656 C-12.2413855 10.08643066 -12.2413855 10.08643066 -13.9375 10.875 C-15.64546753 11.6788916 -15.64546753 11.6788916 -17.38793945 12.49902344 C-19.62091752 13.54874542 -21.85548312 14.59509853 -24.09179688 15.63769531 C-26.32697655 16.68473213 -28.55094566 17.74664528 -30.765625 18.8359375 C-47.99759117 27.17547193 -66.63006099 32.77135069 -85 38 C-85.75829102 38.22204102 -86.51658203 38.44408203 -87.29785156 38.67285156 C-90.95484712 39.68371466 -93.38147172 40.11331678 -97 39 C-91.38187283 36.77729435 -85.72585385 35.00583947 -79.91674805 33.35009766 C-37.17795494 22.28569096 -37.17795494 22.28569096 0 0 Z " fill="#D0500F" transform="translate(696,838)"/>
<path d="M0 0 C4.71204779 0.49083831 8.63901122 1.4994488 13.03515625 3.24609375 C15.96433652 4.37001381 18.98073832 5.15248795 22 6 C23.43990838 6.47188009 24.87728221 6.95154029 26.3125 7.4375 C29.54425623 8.53124063 32.78831172 9.54084362 36.0625 10.5 C39.13925692 11.40828527 42.13592987 12.39845899 45.125 13.5625 C53.52226771 16.76145913 62.12961545 17.82890991 71 19 C71 19.66 71 20.32 71 21 C72.06927734 20.98259766 72.06927734 20.98259766 73.16015625 20.96484375 C78.55286599 20.9140376 83.69931662 20.96290977 89 22 C89.33 22.33 89.66 22.66 90 23 C92.34987262 23.23527773 94.70556039 23.41386417 97.0625 23.5625 C98.35285156 23.64628906 99.64320313 23.73007812 100.97265625 23.81640625 C102.47119141 23.90728516 102.47119141 23.90728516 104 24 C104 24.33 104 24.66 104 25 C90.85780789 25.6778208 78.82569946 23.69760994 66 21 C65.01273926 20.80164551 64.02547852 20.60329102 63.00830078 20.39892578 C41.59884669 16.07020071 20.03648579 9.79420796 0 1 C0 0.67 0 0.34 0 0 Z " fill="#B7613A" transform="translate(372,860)"/>
<path d="M0 0 C0.99 0.33 1.98 0.66 3 1 C1.99646484 1.74830078 1.99646484 1.74830078 0.97265625 2.51171875 C-1.71380414 4.52025356 -4.39492676 6.53563609 -7.07421875 8.55371094 C-8.38972555 9.54167522 -9.70754345 10.52656774 -11.02734375 11.50878906 C-22.91849266 20.36071975 -34.48394017 29.40218693 -44.06640625 40.80078125 C-50.95630033 48.63716582 -58.38316232 56.08648394 -67 62 C-66.19109447 57.74642936 -64.24771409 55.8516514 -61 53 C-60.34 53 -59.68 53 -59 53 C-58.34 51.68 -57.68 50.36 -57 49 C-56.34 49 -55.68 49 -55 49 C-55 48.34 -55 47.68 -55 47 C-54.34 47 -53.68 47 -53 47 C-53 46.34 -53 45.68 -53 45 C-52.34 45 -51.68 45 -51 45 C-50.67 43.68 -50.34 42.36 -50 41 C-49.01 41 -48.02 41 -47 41 C-47 40.34 -47 39.68 -47 39 C-46.34 39 -45.68 39 -45 39 C-45 38.34 -45 37.68 -45 37 C-44.34 37 -43.68 37 -43 37 C-43 36.34 -43 35.68 -43 35 C-41.6015625 33.58984375 -41.6015625 33.58984375 -39.625 31.9375 C-36.50849769 29.29878899 -33.48684101 26.59684332 -30.5 23.8125 C-24.89539654 18.74496828 -18.87494326 14.29882574 -12.796875 9.82421875 C-8.98862645 7.01700092 -5.31684987 4.06076345 -1.69921875 1.01171875 C-1.13847656 0.67785156 -0.57773437 0.34398437 0 0 Z " fill="#B5B5B4" transform="translate(297,199)"/>
<path d="M0 0 C0.33 0 0.66 0 1 0 C1.24349618 18.78853995 0.95119804 37.28807827 -1 56 C-1.08540039 56.83257324 -1.17080078 57.66514648 -1.25878906 58.52294922 C-1.76503145 63.36004563 -2.35221146 68.17984122 -3 73 C-3.15339844 74.18722656 -3.30679688 75.37445312 -3.46484375 76.59765625 C-3.62082031 77.67917969 -3.77679687 78.76070312 -3.9375 79.875 C-4.07027344 80.80054688 -4.20304688 81.72609375 -4.33984375 82.6796875 C-5.08440987 85.29668321 -6.04495817 86.18401972 -8 88 C-7.46447103 82.1620347 -6.79608405 76.36584667 -5.94677734 70.56542969 C-4.40903992 60.04941595 -3.37989058 49.55120385 -2.64672852 38.94897461 C-2.57510498 37.93971924 -2.50348145 36.93046387 -2.4296875 35.890625 C-2.34050049 34.54532715 -2.34050049 34.54532715 -2.24951172 33.17285156 C-2 31 -2 31 -1 29 C-0.84530633 26.82325217 -0.74997894 24.6421652 -0.68359375 22.4609375 C-0.64169922 21.15898438 -0.59980469 19.85703125 -0.55664062 18.515625 C-0.51682701 17.13541955 -0.47711478 15.75521117 -0.4375 14.375 C-0.39430593 12.98696585 -0.35069135 11.59894472 -0.30664062 10.2109375 C-0.20028 6.80739744 -0.09825286 3.40378222 0 0 Z " fill="#C75217" transform="translate(891,495)"/>
<path d="M0 0 C-3.32559988 2.21706659 -5.60615255 2.68307919 -9.51171875 3.4375 C-10.15760452 3.56310303 -10.8034903 3.68870605 -11.46894836 3.81811523 C-12.84267721 4.08355056 -14.21706588 4.3455902 -15.59204102 4.60449219 C-17.63676511 4.99042403 -19.67874898 5.38876698 -21.72070312 5.7890625 C-37.41872104 8.82544754 -52.52868364 10.30168123 -68.5 10.125 C-70.11327558 10.11493124 -71.72655737 10.1058124 -73.33984375 10.09765625 C-77.22672105 10.07599453 -81.11328807 10.04168915 -85 10 C-85 9.67 -85 9.34 -85 9 C-84.09048584 8.95512451 -83.18097168 8.91024902 -82.24389648 8.86401367 C-59.74466333 7.7250813 -37.35930837 6.56687853 -15.37329102 1.27001953 C-10.14014706 0.04996436 -5.37652366 -0.15376646 0 0 Z " fill="#CB5D26" transform="translate(598,844)"/>
<path d="M0 0 C-13.55015832 6.73863812 -27.19955847 12.35410728 -41.5625 17.0625 C-42.27936981 17.29756256 -42.99623962 17.53262512 -43.73483276 17.77481079 C-63.70261208 24.29113642 -63.70261208 24.29113642 -72 24 C-68.78075788 21.85383859 -66.57074046 21.34234591 -62.8125 20.5625 C-58.3847236 19.64332933 -54.30552523 18.43716606 -50.10522461 16.80541992 C-47.95720122 15.98362598 -45.79534344 15.23016935 -43.6171875 14.4921875 C-0.55169594 -0.16550878 -0.55169594 -0.16550878 0 0 Z " fill="#CA5215" transform="translate(666,820)"/>
<path d="M0 0 C0.33 0 0.66 0 1 0 C2.11870067 25.30749514 -2.66764494 49.58675027 -9 74 C-9.33 74 -9.66 74 -10 74 C-10.29659862 67.24236124 -9.17193583 61.2642948 -7.6875 54.6875 C-3.76125964 36.49836463 -1.3943371 18.55694953 0 0 Z " fill="#CD561D" transform="translate(856,529)"/>
<path d="M0 0 C0.66 0.33 1.32 0.66 2 1 C-9.55 12.55 -21.1 24.1 -33 36 C-33 33 -33 33 -31.71484375 31.45703125 C-31.12832031 30.91433594 -30.54179687 30.37164062 -29.9375 29.8125 C-27.33547993 27.32542861 -24.90074268 24.79942922 -22.5625 22.0625 C-17.08041897 15.72384381 -11.13181086 9.98274315 -4.76171875 4.54296875 C-3.10184189 3.08919634 -1.54066019 1.57858414 0 0 Z " fill="#A09F9D" transform="translate(287,250)"/>
<path d="M0 0 C0.66 0.33 1.32 0.66 2 1 C-0.92825897 4.22823754 -3.68074421 6.0569881 -7.61328125 7.91015625 C-8.69673828 8.42513672 -9.78019531 8.94011719 -10.89648438 9.47070312 C-12.58741211 10.25864258 -12.58741211 10.25864258 -14.3125 11.0625 C-15.42818359 11.59166016 -16.54386719 12.12082031 -17.69335938 12.66601562 C-23.08747081 15.21438955 -28.49367421 17.70371118 -34 20 C-33.44921875 18.203125 -33.44921875 18.203125 -32 16 C-29.5978046 14.75595306 -27.31823701 13.73067184 -24.8125 12.75 C-18.8997468 10.30917221 -13.19370217 7.66220727 -7.5625 4.625 C-6.91837158 4.27920898 -6.27424316 3.93341797 -5.6105957 3.57714844 C-2.6187019 2.05350689 -2.6187019 2.05350689 0 0 Z " fill="#D24A04" transform="translate(696,838)"/>
<path d="M0 0 C4.71204779 0.49083831 8.63901122 1.4994488 13.03515625 3.24609375 C15.96433652 4.37001381 18.98073832 5.15248795 22 6 C23.43990838 6.47188009 24.87728221 6.95154029 26.3125 7.4375 C31.17280876 9.07994917 36.07893724 10.55141994 41 12 C41 12.33 41 12.66 41 13 C36.10492002 13.18368102 32.28630551 12.71524366 27.65625 11.13671875 C26.49222656 10.74419922 25.32820313 10.35167969 24.12890625 9.94726562 C22.33259766 9.32368164 22.33259766 9.32368164 20.5 8.6875 C19.30246094 8.28337891 18.10492188 7.87925781 16.87109375 7.46289062 C11.14452831 5.51281435 5.50876894 3.50324941 0 1 C0 0.67 0 0.34 0 0 Z " fill="#C17550" transform="translate(372,860)"/>
<path d="M0 0 C1.08622755 3.25868265 0.91122669 4.39204274 0.22265625 7.66796875 C0.03896484 8.56064453 -0.14472656 9.45332031 -0.33398438 10.37304688 C-0.53314453 11.30181641 -0.73230469 12.23058594 -0.9375 13.1875 C-1.13279297 14.12787109 -1.32808594 15.06824219 -1.52929688 16.03710938 C-2.01265881 18.35960454 -2.5031383 20.68036206 -3 23 C-3.66 23 -4.32 23 -5 23 C-5.33 23.99 -5.66 24.98 -6 26 C-5.52087184 17.75569133 -4.02214499 9.99955473 -2 2 C-1.34 2 -0.68 2 0 2 C0 1.34 0 0.68 0 0 Z " fill="#BDBAB6" transform="translate(147,420)"/>
<path d="M0 0 C6.0397925 9.05968875 7.80201843 20.32699347 8 31 C7.34 31 6.68 31 6 31 C5.49550598 28.41747107 4.99625699 25.83411297 4.5 23.25 C4.35691406 22.52039063 4.21382812 21.79078125 4.06640625 21.0390625 C3.41111121 17.60656468 3 14.50830509 3 11 C2.34 11 1.68 11 1 11 C-0.17571451 7.32589215 -0.07366746 3.83070817 0 0 Z " fill="#B85F36" transform="translate(875,400)"/>
<path d="M0 0 C0 0.66 0 1.32 0 2 C-16.70842825 8.33485194 -16.70842825 8.33485194 -25 11 C-22.07651242 7.71669856 -19.24542505 7.04133067 -15 6 C-15 5.34 -15 4.68 -15 4 C-13.25307205 3.32532438 -11.50231475 2.66055844 -9.75 2 C-8.77546875 1.62875 -7.8009375 1.2575 -6.796875 0.875 C-4 0 -4 0 0 0 Z " fill="#BAB8B3" transform="translate(399,185)"/>
<path d="M0 0 C2.44358168 3.66537252 3.72189872 7.36872864 5.1875 11.5 C5.47302734 12.27214844 5.75855469 13.04429687 6.05273438 13.83984375 C6.31763672 14.58363281 6.58253906 15.32742188 6.85546875 16.09375 C7.09934326 16.77115234 7.34321777 17.44855469 7.59448242 18.14648438 C8 20 8 20 7 23 C6.67 21.35 6.34 19.7 6 18 C5.34 18 4.68 18 4 18 C3.32187886 16.1291122 2.6580054 14.25305707 2 12.375 C1.443125 10.80878906 1.443125 10.80878906 0.875 9.2109375 C-0.00483564 5.98225494 -0.15988262 3.32755706 0 0 Z " fill="#C16F49" transform="translate(867,376)"/>
<path d="M0 0 C0 0.33 0 0.66 0 1 C-3.72793942 1.67365384 -7.45752995 2.33768978 -11.1875 3 C-12.24259766 3.19078125 -13.29769531 3.3815625 -14.38476562 3.578125 C-15.40634766 3.75859375 -16.42792969 3.9390625 -17.48046875 4.125 C-18.88655396 4.37636719 -18.88655396 4.37636719 -20.32104492 4.6328125 C-22.91967719 4.98899066 -25.38106212 5.06645996 -28 5 C-24.91190305 3.23537317 -23.76687864 3 -20 3 C-20 2.34 -20 1.68 -20 1 C-13.31184516 0.37577221 -6.71884955 -0.12920865 0 0 Z " fill="#D5D2CD" transform="translate(462,137)"/>
<path d="M0 0 C1.81293089 0.14037521 3.6253443 0.28744889 5.4375 0.4375 C6.95150391 0.55931641 6.95150391 0.55931641 8.49609375 0.68359375 C11 1 11 1 12 2 C14.34987262 2.23527773 16.70556039 2.41386417 19.0625 2.5625 C20.35285156 2.64628906 21.64320313 2.73007812 22.97265625 2.81640625 C24.47119141 2.90728516 24.47119141 2.90728516 26 3 C26 3.33 26 3.66 26 4 C23.47886908 4.05447822 20.9589415 4.09389852 18.4375 4.125 C17.73302734 4.14175781 17.02855469 4.15851562 16.30273438 4.17578125 C10.2509679 4.2315579 5.1431915 3.42879433 0 0 Z " fill="#D17344" transform="translate(450,881)"/>
<path d="M0 0 C0.33 0 0.66 0 1 0 C1.5535024 6.36527755 -0.15070592 11.31181071 -3 17 C-3.66 17.66 -4.32 18.32 -5 19 C-3.64746536 12.54945018 -1.96939767 6.28894321 0 0 Z " fill="#DA5209" transform="translate(877,607)"/>
<path d="M0 0 C0.33 0 0.66 0 1 0 C0.46148032 5.27749285 -0.77343836 9.25645564 -3 14 C-3.66 14 -4.32 14 -5 14 C-5.33 14.66 -5.66 15.32 -6 16 C-5.37183502 12.05050296 -4.1354471 8.80107972 -2.4375 5.1875 C-1.98246094 4.21167969 -1.52742187 3.23585938 -1.05859375 2.23046875 C-0.70925781 1.49441406 -0.35992187 0.75835937 0 0 Z " fill="#BCBAB7" transform="translate(169,353)"/>
<path d="M0 0 C1 3 1 3 0.109375 5.234375 C-0.33921875 6.06453125 -0.7878125 6.8946875 -1.25 7.75 C-3.36991913 11.77725583 -5.26319016 15.79509196 -7 20 C-7.78821819 17.70456573 -8.13558044 16.41991018 -7.37915039 14.07714844 C-7.03875732 13.4277832 -6.69836426 12.77841797 -6.34765625 12.109375 C-5.98349609 11.40039062 -5.61933594 10.69140625 -5.24414062 9.9609375 C-4.85419922 9.23132813 -4.46425781 8.50171875 -4.0625 7.75 C-3.67642578 7.00492187 -3.29035156 6.25984375 -2.89257812 5.4921875 C-1.93909834 3.65585606 -0.97094323 1.82715793 0 0 Z " fill="#A2A09E" transform="translate(208,350)"/>
<path d="M0 0 C3.1049985 2.68333204 4.80081956 5.9238177 6.75 9.5 C7.38421875 10.6446875 8.0184375 11.789375 8.671875 12.96875 C10 16 10 16 9 19 C8.16180842 17.37750059 7.3295884 15.75191503 6.5 14.125 C6.0359375 13.22007812 5.571875 12.31515625 5.09375 11.3828125 C4 9 4 9 4 7 C3.34 7 2.68 7 2 7 C0 4 0 4 0 0 Z " fill="#B06748" transform="translate(844,327)"/>
<path d="M0 0 C0 0.66 0 1.32 0 2 C-6.96779403 3.32719886 -13.92988911 3.08825381 -21 3 C-21 2.67 -21 2.34 -21 2 C-13.94546999 0.79556805 -7.16562789 -0.28100502 0 0 Z " fill="#A9A29C" transform="translate(490,132)"/>
<path d="M0 0 C1.07310858 3.27185553 0.89263102 5.42947592 0.0625 8.75 C-0.13214844 9.54921875 -0.32679688 10.3484375 -0.52734375 11.171875 C-0.76130859 12.07679688 -0.76130859 12.07679688 -1 13 C-1.66 13 -2.32 13 -3 13 C-3.33 14.98 -3.66 16.96 -4 19 C-5.79341438 14.83326479 -4.01173384 11.25336659 -2.5625 7.25 C-2.19801758 6.20392578 -2.19801758 6.20392578 -1.82617188 5.13671875 C-1.22689752 3.42114902 -0.61470115 1.71010285 0 0 Z " fill="#D1D1CF" transform="translate(188,393)"/>
<path d="M0 0 C0.66 0 1.32 0 2 0 C3.06723961 3.46222615 3.10173486 6.64039266 3.0625 10.25 C3.05347656 11.32765625 3.04445313 12.4053125 3.03515625 13.515625 C3.02355469 14.33546875 3.01195312 15.1553125 3 16 C2.67 16 2.34 16 2 16 C1.66104344 14.27192682 1.32908475 12.54248026 1 10.8125 C0.814375 9.84957031 0.62875 8.88664062 0.4375 7.89453125 C0.03122388 5.2065794 -0.07933572 2.71228981 0 0 Z " fill="#D07143" transform="translate(882,431)"/>
<path d="M0 0 C2.94721162 2.74395564 5.19168608 5.38337216 7 9 C6.67 9.66 6.34 10.32 6 11 C3.66475218 8.74259377 1.81294927 6.7194239 0 4 C0 2.68 0 1.36 0 0 Z " fill="#C28063" transform="translate(829,302)"/>
<path d="M0 0 C0.33 0 0.66 0 1 0 C1.5497272 5.63470383 -0.04952165 8.38987758 -3 13 C-4.23593891 9.29218328 -3.5678132 8.32489747 -2.0625 4.8125 C-1.68222656 3.91144531 -1.30195312 3.01039063 -0.91015625 2.08203125 C-0.60980469 1.39496094 -0.30945313 0.70789063 0 0 Z " fill="#DA4C01" transform="translate(865,644)"/>
<path d="M0 0 C0.33 0 0.66 0 1 0 C0.03644647 10.55808656 0.03644647 10.55808656 -1 15 C-1.33 15 -1.66 15 -2 15 C-2.05429959 13.25034642 -2.09292823 11.50020213 -2.125 9.75 C-2.15980469 8.28820312 -2.15980469 8.28820312 -2.1953125 6.796875 C-1.99862781 3.9803502 -1.44568916 2.39050964 0 0 Z " fill="#DB6122" transform="translate(853,567)"/>
<path d="M0 0 C1.8871875 0.0309375 1.8871875 0.0309375 3.8125 0.0625 C0.77724514 2.08600324 -0.38176202 2.38374018 -3.875 2.6875 C-4.68324219 2.76226562 -5.49148438 2.83703125 -6.32421875 2.9140625 C-6.93910156 2.96304688 -7.55398438 3.01203125 -8.1875 3.0625 C-6.45706736 -0.39836529 -3.47359009 -0.0569441 0 0 Z " fill="#BAB6B2" transform="translate(417.1875,178.9375)"/>
<path d="M0 0 C4.3890815 0.51035831 7.33708062 1.52214277 11 4 C9.4375 4.75 9.4375 4.75 7 5 C4.49713591 3.86915563 2.32992278 2.47860484 0 1 C0 0.67 0 0.34 0 0 Z " fill="#B97556" transform="translate(354,852)"/>
<path d="M0 0 C1.80125336 2.70188004 3.00243753 4.93057703 4 8 C3.67 8.99 3.34 9.98 3 11 C0.39665076 8.28817788 0.00543309 7.10866187 -0.1875 3.25 C-0.125625 2.1775 -0.06375 1.105 0 0 Z " fill="#B29B90" transform="translate(188,620)"/>
<path d="M0 0 C3.48331435 3.01887244 4.79157144 5.56909529 6 10 C4.5 8.625 4.5 8.625 3 7 C3 6.34 3 5.68 3 5 C2.01 4.67 1.02 4.34 0 4 C0 2.68 0 1.36 0 0 Z " fill="#B36D51" transform="translate(836,313)"/>
<path d="M0 0 C0.66 0.33 1.32 0.66 2 1 C-0.31 3.64 -2.62 6.28 -5 9 C-5.33 8.01 -5.66 7.02 -6 6 C-5.195625 5.38125 -4.39125 4.7625 -3.5625 4.125 C-0.96125481 2.25835959 -0.96125481 2.25835959 0 0 Z " fill="#A2A2A0" transform="translate(236,252)"/>
<path d="M0 0 C0.66 0.66 1.32 1.32 2 2 C0.68 4.64 -0.64 7.28 -2 10 C-3.19156292 5.23374833 -2.3415946 4.12120649 0 0 Z " fill="#A5A3A2" transform="translate(195,379)"/>
</svg>
